<svg width="2560" height="1341" xmlns="http://www.w3.org/2000/svg"><g><path d="M-116,-81L-127,937L-103,324Z" fill="#c9fada" stroke="#c9fada"/><path d="M-116,-81L-103,324L-72,37Z" fill="#fbffdc" stroke="#fbffdc"/><path d="M-116,-81L-72,37L91,-71Z" fill="#ffffe4" stroke="#ffffe4"/><path d="M-116,-81L91,-71L165,-109Z" fill="#fcfee4" stroke="#fcfee4"/><path d="M91,-71L-72,37L57,34Z" fill="#fdfedf" stroke="#fdfedf"/><path d="M91,-71L57,34L206,35Z" fill="#f6fcdc" stroke="#f6fcdc"/><path d="M91,-71L206,35L165,-109Z" fill="#f3fbde" stroke="#f3fbde"/><path d="M165,-109L206,35L323,-52Z" fill="#eef8db" stroke="#eef8db"/><path d="M165,-109L323,-52L509,-100Z" fill="#e6f5db" stroke="#e6f5db"/><path d="M165,-109L509,-100L1021,-130Z" fill="#d0eddc" stroke="#d0eddc"/><path d="M323,-52L206,35L409,29Z" fill="#e7f6d5" stroke="#e7f6d5"/><path d="M323,-52L409,29L509,-100Z" fill="#dff2d7" stroke="#dff2d7"/><path d="M509,-100L409,29L583,90Z" fill="#d5efd5" stroke="#d5efd5"/><path d="M509,-100L583,90L629,34Z" fill="#ceecd5" stroke="#ceecd5"/><path d="M509,-100L629,34L649,-56Z" fill="#cdebd9" stroke="#cdebd9"/><path d="M509,-100L649,-56L1021,-130Z" fill="#c0e6dd" stroke="#c0e6dd"/><path d="M649,-56L629,34L827,-40Z" fill="#c2e7d8" stroke="#c2e7d8"/><path d="M649,-56L827,-40L1021,-130Z" fill="#b7e3de" stroke="#b7e3de"/><path d="M827,-40L629,34L825,77Z" fill="#bce5d6" stroke="#bce5d6"/><path d="M827,-40L825,77L997,122Z" fill="#b0e1d5" stroke="#b0e1d5"/><path d="M827,-40L997,122L1021,-130Z" fill="#addfdb" stroke="#addfdb"/><path d="M1021,-130L997,122L1089,79Z" fill="#a4ddd9" stroke="#a4ddd9"/><path d="M1021,-130L1089,79L1170,-129Z" fill="#a1dbe0" stroke="#a1dbe0"/><path d="M1021,-130L1170,-129L2427,-123Z" fill="#8fc3dd" stroke="#8fc3dd"/><path d="M1170,-129L1089,79L1238,-101Z" fill="#9dd7df" stroke="#9dd7df"/><path d="M1170,-129L1238,-101L1616,-64Z" fill="#94cee0" stroke="#94cee0"/><path d="M1170,-129L1616,-64L1684,-74Z" fill="#8ec6df" stroke="#8ec6df"/><path d="M1170,-129L1684,-74L2079,-118Z" fill="#8fbcda" stroke="#8fbcda"/><path d="M1170,-129L2079,-118L2427,-123Z" fill="#8faad1" stroke="#8faad1"/><path d="M1238,-101L1089,79L1247,71Z" fill="#9bd6da" stroke="#9bd6da"/><path d="M1238,-101L1247,71L1412,37Z" fill="#96d1db" stroke="#96d1db"/><path d="M1238,-101L1412,37L1462,-36Z" fill="#93cddd" stroke="#93cddd"/><path d="M1238,-101L1462,-36L1616,-64Z" fill="#8fc9df" stroke="#8fc9df"/><path d="M1462,-36L1412,37L1575,27Z" fill="#8ec7d9" stroke="#8ec7d9"/><path d="M1462,-36L1575,27L1616,-64Z" fill="#8fc2d9" stroke="#8fc2d9"/><path d="M1616,-64L1575,27L1684,-74Z" fill="#8fbdd7" stroke="#8fbdd7"/><path d="M1684,-74L1575,27L1760,26Z" fill="#90bad3" stroke="#90bad3"/><path d="M1684,-74L1760,26L1890,-57Z" fill="#90b2d2" stroke="#90b2d2"/><path d="M1684,-74L1890,-57L2079,-118Z" fill="#8fabd1" stroke="#8fabd1"/><path d="M1890,-57L1760,26L1864,88Z" fill="#8faecc" stroke="#8faecc"/><path d="M1890,-57L1864,88L2046,33Z" fill="#8da8c7" stroke="#8da8c7"/><path d="M1890,-57L2046,33L2079,-118Z" fill="#8ba3c9" stroke="#8ba3c9"/><path d="M2079,-118L2046,33L2186,-28Z" fill="#889cc3" stroke="#889cc3"/><path d="M2079,-118L2186,-28L2427,-123Z" fill="#8593c0" stroke="#8593c0"/><path d="M2186,-28L2046,33L2118,121Z" fill="#869bbd" stroke="#869bbd"/><path d="M2186,-28L2118,121L2296,45Z" fill="#8495b8" stroke="#8495b8"/><path d="M2186,-28L2296,45L2382,-54Z" fill="#838fb8" stroke="#838fb8"/><path d="M2186,-28L2382,-54L2427,-123Z" fill="#828cba" stroke="#828cba"/><path d="M2382,-54L2296,45L2469,37Z" fill="#8089b2" stroke="#8089b2"/><path d="M2382,-54L2469,37L2427,-123Z" fill="#8086b4" stroke="#8086b4"/><path d="M2427,-123L2469,37L2621,-88Z" fill="#8080b0" stroke="#8080b0"/><path d="M2621,-88L2469,37L2630,21Z" fill="#8080aa" stroke="#8080aa"/><path d="M2621,-88L2630,21L2750,-55Z" fill="#8080a7" stroke="#8080a7"/><path d="M2750,-55L2630,21L2806,77Z" fill="#7f80a0" stroke="#7f80a0"/><path d="M-72,37L-103,324L-17,209Z" fill="#f6ffd4" stroke="#f6ffd4"/><path d="M-72,37L-17,209L57,34Z" fill="#fbffd9" stroke="#fbffd9"/><path d="M57,34L-17,209L123,265Z" fill="#f3fed1" stroke="#f3fed1"/><path d="M57,34L123,265L206,35Z" fill="#f0fbd4" stroke="#f0fbd4"/><path d="M206,35L123,265L231,261Z" fill="#e8facc" stroke="#e8facc"/><path d="M206,35L231,261L399,175Z" fill="#e2f7cb" stroke="#e2f7cb"/><path d="M206,35L399,175L409,29Z" fill="#e2f5cf" stroke="#e2f5cf"/><path d="M409,29L399,175L583,90Z" fill="#d5f1ce" stroke="#d5f1ce"/><path d="M583,90L399,175L551,198Z" fill="#cdefca" stroke="#cdefca"/><path d="M583,90L551,198L620,167Z" fill="#c7eccb" stroke="#c7eccb"/><path d="M583,90L620,167L629,34Z" fill="#c7ebcf" stroke="#c7ebcf"/><path d="M629,34L620,167L825,77Z" fill="#bfe8d0" stroke="#bfe8d0"/><path d="M825,77L620,167L787,258Z" fill="#b6e6cb" stroke="#b6e6cb"/><path d="M825,77L787,258L997,122Z" fill="#ade2ce" stroke="#ade2ce"/><path d="M997,122L787,258L1031,188Z" fill="#a5e0cc" stroke="#a5e0cc"/><path d="M997,122L1031,188L1089,79Z" fill="#9fddd2" stroke="#9fddd2"/><path d="M1089,79L1031,188L1142,244Z" fill="#99dbcf" stroke="#99dbcf"/><path d="M1089,79L1142,244L1247,71Z" fill="#97d8d2" stroke="#97d8d2"/><path d="M1247,71L1142,244L1283,245Z" fill="#91d4ce" stroke="#91d4ce"/><path d="M1247,71L1283,245L1412,37Z" fill="#90d0d2" stroke="#90d0d2"/><path d="M1412,37L1283,245L1482,239Z" fill="#8accce" stroke="#8accce"/><path d="M1412,37L1482,239L1575,27Z" fill="#8ac6d1" stroke="#8ac6d1"/><path d="M1575,27L1482,239L1615,232Z" fill="#87c2cb" stroke="#87c2cb"/><path d="M1575,27L1615,232L1754,202Z" fill="#89bbc9" stroke="#89bbc9"/><path d="M1575,27L1754,202L1760,26Z" fill="#8cb8cc" stroke="#8cb8cc"/><path d="M1760,26L1754,202L1864,88Z" fill="#8cb1c7" stroke="#8cb1c7"/><path d="M1864,88L1754,202L1877,283Z" fill="#88afc0" stroke="#88afc0"/><path d="M1864,88L1877,283L2045,227Z" fill="#83a8bb" stroke="#83a8bb"/><path d="M1864,88L2045,227L2046,33Z" fill="#87a4be" stroke="#87a4be"/><path d="M2046,33L2045,227L2118,121Z" fill="#839eb8" stroke="#839eb8"/><path d="M2118,121L2045,227L2192,265Z" fill="#7c9ab2" stroke="#7c9ab2"/><path d="M2118,121L2192,265L2296,45Z" fill="#7f95b1" stroke="#7f95b1"/><path d="M2296,45L2192,265L2296,278Z" fill="#7a91aa" stroke="#7a91aa"/><path d="M2296,45L2296,278L2439,276Z" fill="#768ca6" stroke="#768ca6"/><path d="M2296,45L2439,276L2469,37Z" fill="#7a88a9" stroke="#7a88a9"/><path d="M2469,37L2439,276L2575,246Z" fill="#77819f" stroke="#77819f"/><path d="M2469,37L2575,246L2630,21Z" fill="#7b80a2" stroke="#7b80a2"/><path d="M2630,21L2575,246L2813,198Z" fill="#788099" stroke="#788099"/><path d="M2630,21L2813,198L2806,77Z" fill="#7b8099" stroke="#7b8099"/><path d="M-17,209L-103,324L125,370Z" fill="#defcd4" stroke="#defcd4"/><path d="M-17,209L125,370L123,265Z" fill="#dcfad1" stroke="#dcfad1"/><path d="M123,265L125,370L221,336Z" fill="#cdf7d0" stroke="#cdf7d0"/><path d="M123,265L221,336L231,261Z" fill="#d2f7cd" stroke="#d2f7cd"/><path d="M231,261L221,336L328,383Z" fill="#c4f4cc" stroke="#c4f4cc"/><path d="M231,261L328,383L399,175Z" fill="#cbf4c9" stroke="#cbf4c9"/><path d="M399,175L328,383L515,405Z" fill="#b8efc9" stroke="#b8efc9"/><path d="M399,175L515,405L551,198Z" fill="#bfeec8" stroke="#bfeec8"/><path d="M551,198L515,405L670,389Z" fill="#a6e9cb" stroke="#a6e9cb"/><path d="M551,198L670,389L620,167Z" fill="#b4e9c9" stroke="#b4e9c9"/><path d="M620,167L670,389L787,258Z" fill="#a8e6ca" stroke="#a8e6ca"/><path d="M787,258L670,389L775,396Z" fill="#92e2cd" stroke="#92e2cd"/><path d="M787,258L775,396L934,432Z" fill="#87dfce" stroke="#87dfce"/><path d="M787,258L934,432L1031,188Z" fill="#90dece" stroke="#90dece"/><path d="M1031,188L934,432L1074,361Z" fill="#80dad0" stroke="#80dad0"/><path d="M1031,188L1074,361L1142,244Z" fill="#88d9cf" stroke="#88d9cf"/><path d="M1142,244L1074,361L1258,373Z" fill="#76d4d0" stroke="#76d4d0"/><path d="M1142,244L1258,373L1283,245Z" fill="#7bd2cf" stroke="#7bd2cf"/><path d="M1283,245L1258,373L1403,345Z" fill="#70cccf" stroke="#70cccf"/><path d="M1283,245L1403,345L1482,239Z" fill="#76cace" stroke="#76cace"/><path d="M1482,239L1403,345L1588,416Z" fill="#65c3ce" stroke="#65c3ce"/><path d="M1482,239L1588,416L1615,232Z" fill="#6ebfcb" stroke="#6ebfcb"/><path d="M1615,232L1588,416L1684,357Z" fill="#66b9c9" stroke="#66b9c9"/><path d="M1615,232L1684,357L1754,202Z" fill="#77b7c6" stroke="#77b7c6"/><path d="M1754,202L1684,357L1825,327Z" fill="#70b1c4" stroke="#70b1c4"/><path d="M1754,202L1825,327L1877,283Z" fill="#76adc2" stroke="#76adc2"/><path d="M1877,283L1825,327L2041,335Z" fill="#6aa6be" stroke="#6aa6be"/><path d="M1877,283L2041,335L2045,227Z" fill="#6fa1ba" stroke="#6fa1ba"/><path d="M2045,227L2041,335L2192,265Z" fill="#6d9bb5" stroke="#6d9bb5"/><path d="M2192,265L2041,335L2184,370Z" fill="#6196b3" stroke="#6196b3"/><path d="M2192,265L2184,370L2296,278Z" fill="#6291af" stroke="#6291af"/><path d="M2296,278L2184,370L2320,411Z" fill="#578dae" stroke="#578dae"/><path d="M2296,278L2320,411L2439,331Z" fill="#5787a9" stroke="#5787a9"/><path d="M2296,278L2439,331L2439,276Z" fill="#6086a6" stroke="#6086a6"/><path d="M2439,276L2439,331L2566,333Z" fill="#5b7fa2" stroke="#5b7fa2"/><path d="M2439,276L2566,333L2575,246Z" fill="#627d9f" stroke="#627d9f"/><path d="M2575,246L2566,333L2816,381Z" fill="#5a7c9a" stroke="#5a7c9a"/><path d="M2575,246L2816,381L2813,198Z" fill="#647e95" stroke="#647e95"/><path d="M2813,198L2816,381L2833,920Z" fill="#357296" stroke="#357296"/><path d="M-103,324L-127,937L-102,676Z" fill="#9ee4de" stroke="#9ee4de"/><path d="M-103,324L-102,676L-73,501Z" fill="#b5f2dc" stroke="#b5f2dc"/><path d="M-103,324L-73,501L44,512Z" fill="#bff6d9" stroke="#bff6d9"/><path d="M-103,324L44,512L125,370Z" fill="#c6f8d6" stroke="#c6f8d6"/><path d="M125,370L44,512L256,562Z" fill="#adefd4" stroke="#adefd4"/><path d="M125,370L256,562L221,336Z" fill="#b4f1d0" stroke="#b4f1d0"/><path d="M221,336L256,562L328,383Z" fill="#aeefce" stroke="#aeefce"/><path d="M328,383L256,562L417,556Z" fill="#9be8ce" stroke="#9be8ce"/><path d="M328,383L417,556L515,405Z" fill="#9de9cc" stroke="#9de9cc"/><path d="M515,405L417,556L585,558Z" fill="#89e1cf" stroke="#89e1cf"/><path d="M515,405L585,558L632,507Z" fill="#86dfcf" stroke="#86dfcf"/><path d="M515,405L632,507L670,389Z" fill="#8ee3ce" stroke="#8ee3ce"/><path d="M670,389L632,507L803,481Z" fill="#80ddcf" stroke="#80ddcf"/><path d="M670,389L803,481L775,396Z" fill="#82dece" stroke="#82dece"/><path d="M775,396L803,481L934,432Z" fill="#78dad0" stroke="#78dad0"/><path d="M934,432L803,481L928,473Z" fill="#6fd6d2" stroke="#6fd6d2"/><path d="M934,432L928,473L1074,361Z" fill="#6fd6d1" stroke="#6fd6d1"/><path d="M1074,361L928,473L1172,500Z" fill="#64d2d3" stroke="#64d2d3"/><path d="M1074,361L1172,500L1258,373Z" fill="#63d0d2" stroke="#63d0d2"/><path d="M1258,373L1172,500L1272,530Z" fill="#55c9d4" stroke="#55c9d4"/><path d="M1258,373L1272,530L1403,345Z" fill="#5bc8d2" stroke="#5bc8d2"/><path d="M1403,345L1272,530L1374,582Z" fill="#4cc1d3" stroke="#4cc1d3"/><path d="M1403,345L1374,582L1588,416Z" fill="#4ebfd2" stroke="#4ebfd2"/><path d="M1588,416L1374,582L1602,554Z" fill="#41b5d2" stroke="#41b5d2"/><path d="M1588,416L1602,554L1778,482Z" fill="#48aecc" stroke="#48aecc"/><path d="M1588,416L1778,482L1684,357Z" fill="#55b1ca" stroke="#55b1ca"/><path d="M1684,357L1778,482L1825,327Z" fill="#5baec6" stroke="#5baec6"/><path d="M1825,327L1778,482L1837,557Z" fill="#4fa5c6" stroke="#4fa5c6"/><path d="M1825,327L1837,557L2041,335Z" fill="#56a3c1" stroke="#56a3c1"/><path d="M2041,335L1837,557L2071,525Z" fill="#4799bf" stroke="#4799bf"/><path d="M2041,335L2071,525L2184,370Z" fill="#5095b7" stroke="#5095b7"/><path d="M2184,370L2071,525L2223,488Z" fill="#448eb5" stroke="#448eb5"/><path d="M2184,370L2223,488L2320,411Z" fill="#498ab0" stroke="#498ab0"/><path d="M2320,411L2223,488L2329,499Z" fill="#3f84b0" stroke="#3f84b0"/><path d="M2320,411L2329,499L2439,331Z" fill="#4783aa" stroke="#4783aa"/><path d="M2439,331L2329,499L2464,569Z" fill="#3c7caa" stroke="#3c7caa"/><path d="M2439,331L2464,569L2566,333Z" fill="#467ba4" stroke="#467ba4"/><path d="M2566,333L2464,569L2666,523Z" fill="#3a74a2" stroke="#3a74a2"/><path d="M2566,333L2666,523L2731,500Z" fill="#3e769d" stroke="#3e769d"/><path d="M2566,333L2731,500L2816,381Z" fill="#487999" stroke="#487999"/><path d="M2816,381L2731,500L2742,694Z" fill="#30709a" stroke="#30709a"/><path d="M2816,381L2742,694L2833,920Z" fill="#1d6299" stroke="#1d6299"/><path d="M-73,501L-102,676L44,512Z" fill="#a9eddc" stroke="#a9eddc"/><path d="M44,512L-102,676L50,724Z" fill="#9fe5da" stroke="#9fe5da"/><path d="M44,512L50,724L187,711Z" fill="#97e1d7" stroke="#97e1d7"/><path d="M44,512L187,711L256,562Z" fill="#98e5d5" stroke="#98e5d5"/><path d="M256,562L187,711L334,783Z" fill="#86d8d1" stroke="#86d8d1"/><path d="M256,562L334,783L428,727Z" fill="#80d5cf" stroke="#80d5cf"/><path d="M256,562L428,727L417,556Z" fill="#86ddcf" stroke="#86ddcf"/><path d="M417,556L428,727L560,627Z" fill="#79d6cf" stroke="#79d6cf"/><path d="M417,556L560,627L585,558Z" fill="#7adbd1" stroke="#7adbd1"/><path d="M585,558L560,627L684,641Z" fill="#6fd4d1" stroke="#6fd4d1"/><path d="M585,558L684,641L632,507Z" fill="#71d7d2" stroke="#71d7d2"/><path d="M632,507L684,641L803,481Z" fill="#6fd7d2" stroke="#6fd7d2"/><path d="M803,481L684,641L865,732Z" fill="#5dcdd3" stroke="#5dcdd3"/><path d="M803,481L865,732L980,657Z" fill="#54c9d4" stroke="#54c9d4"/><path d="M803,481L980,657L928,473Z" fill="#5fd1d4" stroke="#5fd1d4"/><path d="M928,473L980,657L1172,500Z" fill="#53ccd5" stroke="#53ccd5"/><path d="M1172,500L980,657L1217,642Z" fill="#43c3d7" stroke="#43c3d7"/><path d="M1172,500L1217,642L1272,530Z" fill="#45c3d6" stroke="#45c3d6"/><path d="M1272,530L1217,642L1374,582Z" fill="#3dbdd6" stroke="#3dbdd6"/><path d="M1374,582L1217,642L1421,640Z" fill="#36b6d5" stroke="#36b6d5"/><path d="M1374,582L1421,640L1539,636Z" fill="#31b1d5" stroke="#31b1d5"/><path d="M1374,582L1539,636L1602,554Z" fill="#34b0d4" stroke="#34b0d4"/><path d="M1602,554L1539,636L1667,706Z" fill="#30a5d0" stroke="#30a5d0"/><path d="M1602,554L1667,706L1837,557Z" fill="#33a1cd" stroke="#33a1cd"/><path d="M1602,554L1837,557L1778,482Z" fill="#40a5cb" stroke="#40a5cb"/><path d="M1837,557L1667,706L1859,734Z" fill="#2d94ca" stroke="#2d94ca"/><path d="M1837,557L1859,734L2053,658Z" fill="#2d8dc4" stroke="#2d8dc4"/><path d="M1837,557L2053,658L2071,525Z" fill="#3290c1" stroke="#3290c1"/><path d="M2071,525L2053,658L2123,652Z" fill="#2c86bc" stroke="#2c86bc"/><path d="M2071,525L2123,652L2223,488Z" fill="#3288b9" stroke="#3288b9"/><path d="M2223,488L2123,652L2304,698Z" fill="#287db6" stroke="#287db6"/><path d="M2223,488L2304,698L2329,499Z" fill="#2d7eb2" stroke="#2d7eb2"/><path d="M2329,499L2304,698L2464,569Z" fill="#2676af" stroke="#2676af"/><path d="M2464,569L2304,698L2445,685Z" fill="#1e6cac" stroke="#1e6cac"/><path d="M2464,569L2445,685L2605,696Z" fill="#1e65a7" stroke="#1e65a7"/><path d="M2464,569L2605,696L2666,523Z" fill="#246aa4" stroke="#246aa4"/><path d="M2666,523L2605,696L2742,694Z" fill="#20669f" stroke="#20669f"/><path d="M2666,523L2742,694L2731,500Z" fill="#276d9e" stroke="#276d9e"/><path d="M-102,676L-127,937L-32,782Z" fill="#92d1d9" stroke="#92d1d9"/><path d="M-102,676L-32,782L50,724Z" fill="#96dbda" stroke="#96dbda"/><path d="M50,724L-32,782L95,820Z" fill="#8ed4d7" stroke="#8ed4d7"/><path d="M50,724L95,820L187,711Z" fill="#8ad4d5" stroke="#8ad4d5"/><path d="M187,711L95,820L232,869Z" fill="#85ccd1" stroke="#85ccd1"/><path d="M187,711L232,869L334,783Z" fill="#7fcbcf" stroke="#7fcbcf"/><path d="M428,727L334,783L428,980Z" fill="#73c0c8" stroke="#73c0c8"/><path d="M428,727L428,980L554,797Z" fill="#6cbcc9" stroke="#6cbcc9"/><path d="M428,727L554,797L560,627Z" fill="#6ccbcf" stroke="#6ccbcf"/><path d="M560,627L554,797L684,641Z" fill="#67cbd0" stroke="#67cbd0"/><path d="M684,641L554,797L635,863Z" fill="#5cc1cf" stroke="#5cc1cf"/><path d="M684,641L635,863L786,878Z" fill="#55bace" stroke="#55bace"/><path d="M684,641L786,878L865,732Z" fill="#4fbed1" stroke="#4fbed1"/><path d="M865,732L786,878L944,879Z" fill="#47afcd" stroke="#47afcd"/><path d="M865,732L944,879L980,657Z" fill="#41b8d3" stroke="#41b8d3"/><path d="M980,657L944,879L1165,826Z" fill="#38b0d2" stroke="#38b0d2"/><path d="M980,657L1165,826L1174,726Z" fill="#35b5d5" stroke="#35b5d5"/><path d="M980,657L1174,726L1217,642Z" fill="#3bbbd6" stroke="#3bbbd6"/><path d="M1174,726L1165,826L1256,846Z" fill="#2ea7d2" stroke="#2ea7d2"/><path d="M1174,726L1256,846L1217,642Z" fill="#2fafd5" stroke="#2fafd5"/><path d="M1217,642L1256,846L1421,640Z" fill="#2eaed4" stroke="#2eaed4"/><path d="M1421,640L1256,846L1473,770Z" fill="#26a5d3" stroke="#26a5d3"/><path d="M1421,640L1473,770L1539,636Z" fill="#29a8d3" stroke="#29a8d3"/><path d="M1539,636L1473,770L1627,784Z" fill="#259dd1" stroke="#259dd1"/><path d="M1539,636L1627,784L1667,706Z" fill="#289bcf" stroke="#289bcf"/><path d="M1667,706L1627,784L1782,854Z" fill="#228dca" stroke="#228dca"/><path d="M1667,706L1782,854L1859,734Z" fill="#228ac9" stroke="#228ac9"/><path d="M1859,734L1782,854L1830,881Z" fill="#237dc2" stroke="#237dc2"/><path d="M1859,734L1830,881L2038,833Z" fill="#2178bf" stroke="#2178bf"/><path d="M1859,734L2038,833L2053,658Z" fill="#217ec0" stroke="#217ec0"/><path d="M2053,658L2038,833L2143,768Z" fill="#1d76ba" stroke="#1d76ba"/><path d="M2053,658L2143,768L2123,652Z" fill="#227bba" stroke="#227bba"/><path d="M2123,652L2143,768L2304,698Z" fill="#1e74b6" stroke="#1e74b6"/><path d="M2304,698L2143,768L2364,771Z" fill="#186ab2" stroke="#186ab2"/><path d="M2304,698L2364,771L2445,685Z" fill="#1866ad" stroke="#1866ad"/><path d="M2445,685L2364,771L2463,790Z" fill="#145fa9" stroke="#145fa9"/><path d="M2445,685L2463,790L2605,696Z" fill="#165da6" stroke="#165da6"/><path d="M2605,696L2463,790L2598,809Z" fill="#1257a3" stroke="#1257a3"/><path d="M2605,696L2598,809L2743,818Z" fill="#12559e" stroke="#12559e"/><path d="M2605,696L2743,818L2742,694Z" fill="#155a9d" stroke="#155a9d"/><path d="M2742,694L2743,818L2833,920Z" fill="#125095" stroke="#125095"/><path d="M-32,782L-127,937L118,957Z" fill="#93c2d0" stroke="#93c2d0"/><path d="M-32,782L118,957L95,820Z" fill="#8ec6d0" stroke="#8ec6d0"/><path d="M95,820L118,957L232,869Z" fill="#87bfcb" stroke="#87bfcb"/><path d="M232,869L118,957L189,963Z" fill="#85b7c6" stroke="#85b7c6"/><path d="M232,869L189,963L428,980Z" fill="#7eb3c2" stroke="#7eb3c2"/><path d="M232,869L428,980L334,783Z" fill="#79bbc5" stroke="#79bbc5"/><path d="M554,797L428,980L551,1011Z" fill="#69acc2" stroke="#69acc2"/><path d="M554,797L551,1011L635,863Z" fill="#62b0c5" stroke="#62b0c5"/><path d="M635,863L551,1011L684,921Z" fill="#5ea7c3" stroke="#5ea7c3"/><path d="M635,863L684,921L786,878Z" fill="#56abc7" stroke="#56abc7"/><path d="M786,878L684,921L877,1029Z" fill="#4fa0c3" stroke="#4fa0c3"/><path d="M786,878L877,1029L944,879Z" fill="#489fc5" stroke="#489fc5"/><path d="M944,879L877,1029L987,923Z" fill="#429bc5" stroke="#429bc5"/><path d="M944,879L987,923L1069,935Z" fill="#3c9dc9" stroke="#3c9dc9"/><path d="M944,879L1069,935L1165,826Z" fill="#37a1cc" stroke="#37a1cc"/><path d="M1165,826L1069,935L1289,958Z" fill="#3097ca" stroke="#3097ca"/><path d="M1165,826L1289,958L1256,846Z" fill="#2d99cb" stroke="#2d99cb"/><path d="M1256,846L1289,958L1471,936Z" fill="#288ec8" stroke="#288ec8"/><path d="M1256,846L1471,936L1473,770Z" fill="#2495cd" stroke="#2495cd"/><path d="M1473,770L1471,936L1583,940Z" fill="#228ac8" stroke="#228ac8"/><path d="M1473,770L1583,940L1627,784Z" fill="#228ecb" stroke="#228ecb"/><path d="M1627,784L1583,940L1701,973Z" fill="#237ec3" stroke="#237ec3"/><path d="M1627,784L1701,973L1782,854Z" fill="#237ec3" stroke="#237ec3"/><path d="M1782,854L1701,973L1818,967Z" fill="#2470bc" stroke="#2470bc"/><path d="M1782,854L1818,967L1830,881Z" fill="#2572bd" stroke="#2572bd"/><path d="M1830,881L1818,967L2063,1021Z" fill="#2362b5" stroke="#2362b5"/><path d="M1830,881L2063,1021L2038,833Z" fill="#2065b4" stroke="#2065b4"/><path d="M2038,833L2063,1021L2197,962Z" fill="#1d58ac" stroke="#1d58ac"/><path d="M2038,833L2197,962L2143,768Z" fill="#1b63b2" stroke="#1b63b2"/><path d="M2143,768L2197,962L2309,937Z" fill="#1958aa" stroke="#1958aa"/><path d="M2143,768L2309,937L2364,771Z" fill="#165eac" stroke="#165eac"/><path d="M2364,771L2309,937L2463,790Z" fill="#1356a7" stroke="#1356a7"/><path d="M2463,790L2309,937L2504,970Z" fill="#13489f" stroke="#13489f"/><path d="M2463,790L2504,970L2598,809Z" fill="#13489e" stroke="#13489e"/><path d="M2598,809L2504,970L2643,1019Z" fill="#143c95" stroke="#143c95"/><path d="M2598,809L2643,1019L2743,818Z" fill="#134495" stroke="#134495"/><path d="M2743,818L2643,1019L2833,920Z" fill="#143e8e" stroke="#143e8e"/><path d="M-127,937L-101,1264L-40,1148Z" fill="#929fbb" stroke="#929fbb"/><path d="M-127,937L-40,1148L118,957Z" fill="#93afc4" stroke="#93afc4"/><path d="M118,957L-40,1148L22,1180Z" fill="#8fa1ba" stroke="#8fa1ba"/><path d="M118,957L22,1180L196,1125Z" fill="#8aa0b8" stroke="#8aa0b8"/><path d="M118,957L196,1125L189,963Z" fill="#86aabe" stroke="#86aabe"/><path d="M189,963L196,1125L334,1133Z" fill="#809fb5" stroke="#809fb5"/><path d="M189,963L334,1133L428,980Z" fill="#7aa4b8" stroke="#7aa4b8"/><path d="M428,980L334,1133L515,1078Z" fill="#709ab3" stroke="#709ab3"/><path d="M428,980L515,1078L551,1011Z" fill="#6a9eb8" stroke="#6a9eb8"/><path d="M551,1011L515,1078L698,1129Z" fill="#6092b3" stroke="#6092b3"/><path d="M551,1011L698,1129L684,921Z" fill="#5b98ba" stroke="#5b98ba"/><path d="M684,921L698,1129L877,1029Z" fill="#5194bb" stroke="#5194bb"/><path d="M877,1029L698,1129L859,1167Z" fill="#4b85b2" stroke="#4b85b2"/><path d="M877,1029L859,1167L1032,1126Z" fill="#4281b3" stroke="#4281b3"/><path d="M877,1029L1032,1126L987,923Z" fill="#3f8dbd" stroke="#3f8dbd"/><path d="M987,923L1032,1126L1074,1108Z" fill="#3986bb" stroke="#3986bb"/><path d="M987,923L1074,1108L1069,935Z" fill="#3990c2" stroke="#3990c2"/><path d="M1069,935L1074,1108L1289,958Z" fill="#328ac1" stroke="#328ac1"/><path d="M1289,958L1074,1108L1306,1107Z" fill="#2d7dbb" stroke="#2d7dbb"/><path d="M1289,958L1306,1107L1384,1125Z" fill="#2877b9" stroke="#2877b9"/><path d="M1289,958L1384,1125L1471,936Z" fill="#267dbf" stroke="#267dbf"/><path d="M1471,936L1384,1125L1630,1095Z" fill="#2270b9" stroke="#2270b9"/><path d="M1471,936L1630,1095L1583,940Z" fill="#2375be" stroke="#2375be"/><path d="M1583,940L1630,1095L1701,973Z" fill="#236eba" stroke="#236eba"/><path d="M1701,973L1630,1095L1734,1105Z" fill="#2362b2" stroke="#2362b2"/><path d="M1701,973L1734,1105L1818,967Z" fill="#2464b4" stroke="#2464b4"/><path d="M1818,967L1734,1105L1900,1138Z" fill="#2457ac" stroke="#2457ac"/><path d="M1818,967L1900,1138L2063,1021Z" fill="#2154aa" stroke="#2154aa"/><path d="M2063,1021L1900,1138L2037,1176Z" fill="#1e449e" stroke="#1e449e"/><path d="M2063,1021L2037,1176L2223,1184Z" fill="#1b3a98" stroke="#1b3a98"/><path d="M2063,1021L2223,1184L2197,962Z" fill="#1a419d" stroke="#1a419d"/><path d="M2197,962L2223,1184L2309,937Z" fill="#18409c" stroke="#18409c"/><path d="M2309,937L2223,1184L2377,1172Z" fill="#153191" stroke="#153191"/><path d="M2309,937L2377,1172L2504,970Z" fill="#133695" stroke="#133695"/><path d="M2504,970L2377,1172L2493,1154Z" fill="#122689" stroke="#122689"/><path d="M2504,970L2493,1154L2575,1080Z" fill="#13278a" stroke="#13278a"/><path d="M2504,970L2575,1080L2643,1019Z" fill="#132e8c" stroke="#132e8c"/><path d="M2643,1019L2575,1080L2732,1260Z" fill="#121f7e" stroke="#121f7e"/><path d="M2643,1019L2732,1260L2817,1085Z" fill="#121f79" stroke="#121f79"/><path d="M2643,1019L2817,1085L2833,920Z" fill="#143085" stroke="#143085"/><path d="M-40,1148L-101,1264L22,1180Z" fill="#9192b1" stroke="#9192b1"/><path d="M22,1180L-101,1264L50,1279Z" fill="#908bab" stroke="#908bab"/><path d="M22,1180L50,1279L196,1125Z" fill="#8a90ad" stroke="#8a90ad"/><path d="M196,1125L50,1279L217,1301Z" fill="#8488a6" stroke="#8488a6"/><path d="M196,1125L217,1301L334,1133Z" fill="#7e8ca9" stroke="#7e8ca9"/><path d="M334,1133L217,1301L321,1304Z" fill="#7982a0" stroke="#7982a0"/><path d="M334,1133L321,1304L535,1321Z" fill="#717e9e" stroke="#717e9e"/><path d="M334,1133L535,1321L515,1078Z" fill="#6b87a7" stroke="#6b87a7"/><path d="M515,1078L535,1321L698,1129Z" fill="#5f82a8" stroke="#5f82a8"/><path d="M698,1129L535,1321L719,1328Z" fill="#58739f" stroke="#58739f"/><path d="M698,1129L719,1328L831,1222Z" fill="#4f74a4" stroke="#4f74a4"/><path d="M698,1129L831,1222L859,1167Z" fill="#4b7bab" stroke="#4b7bab"/><path d="M859,1167L831,1222L969,1215Z" fill="#4474a8" stroke="#4474a8"/><path d="M859,1167L969,1215L1032,1126Z" fill="#3e77ad" stroke="#3e77ad"/><path d="M1032,1126L969,1215L1116,1306Z" fill="#366da9" stroke="#366da9"/><path d="M1032,1126L1116,1306L1074,1108Z" fill="#3471ad" stroke="#3471ad"/><path d="M1074,1108L1116,1306L1322,1217Z" fill="#2e68a9" stroke="#2e68a9"/><path d="M1074,1108L1322,1217L1306,1107Z" fill="#2c6fb1" stroke="#2c6fb1"/><path d="M1306,1107L1322,1217L1384,1125Z" fill="#2669af" stroke="#2669af"/><path d="M1384,1125L1322,1217L1373,1257Z" fill="#2560aa" stroke="#2560aa"/><path d="M1384,1125L1373,1257L1629,1264Z" fill="#1f58a7" stroke="#1f58a7"/><path d="M1384,1125L1629,1264L1630,1095Z" fill="#215baa" stroke="#215baa"/><path d="M1630,1095L1629,1264L1734,1105Z" fill="#2254a8" stroke="#2254a8"/><path d="M1734,1105L1629,1264L1718,1311Z" fill="#21479f" stroke="#21479f"/><path d="M1734,1105L1718,1311L1834,1292Z" fill="#21409b" stroke="#21409b"/><path d="M1734,1105L1834,1292L1900,1138Z" fill="#2245a0" stroke="#2245a0"/><path d="M1900,1138L1834,1292L2006,1231Z" fill="#1f3897" stroke="#1f3897"/><path d="M1900,1138L2006,1231L2037,1176Z" fill="#1e3a98" stroke="#1e3a98"/><path d="M2037,1176L2006,1231L2229,1299Z" fill="#1a2a8c" stroke="#1a2a8c"/><path d="M2037,1176L2229,1299L2223,1184Z" fill="#18278a" stroke="#18278a"/><path d="M2223,1184L2229,1299L2297,1227Z" fill="#151f84" stroke="#151f84"/><path d="M2223,1184L2297,1227L2377,1172Z" fill="#142287" stroke="#142287"/><path d="M2377,1172L2297,1227L2498,1247Z" fill="#111880" stroke="#111880"/><path d="M2377,1172L2498,1247L2493,1154Z" fill="#11187f" stroke="#11187f"/><path d="M2493,1154L2498,1247L2621,1307Z" fill="#110d76" stroke="#110d76"/><path d="M2493,1154L2621,1307L2575,1080Z" fill="#11157b" stroke="#11157b"/><path d="M2575,1080L2621,1307L2732,1260Z" fill="#111073" stroke="#111073"/><path d="M2817,1085L2732,1260L2752,1409Z" fill="#100a69" stroke="#100a69"/><path d="M-101,1264L-59,1434L50,1279Z" fill="#8f80a2" stroke="#8f80a2"/><path d="M50,1279L-59,1434L99,1421Z" fill="#8c7f9a" stroke="#8c7f9a"/><path d="M50,1279L99,1421L217,1301Z" fill="#857c9c" stroke="#857c9c"/><path d="M217,1301L99,1421L245,1366Z" fill="#807a97" stroke="#807a97"/><path d="M217,1301L245,1366L321,1304Z" fill="#7b7899" stroke="#7b7899"/><path d="M321,1304L245,1366L419,1383Z" fill="#767693" stroke="#767693"/><path d="M321,1304L419,1383L535,1321Z" fill="#6d7294" stroke="#6d7294"/><path d="M535,1321L419,1383L546,1383Z" fill="#657092" stroke="#657092"/><path d="M535,1321L546,1383L719,1328Z" fill="#5c6c95" stroke="#5c6c95"/><path d="M719,1328L546,1383L730,1456Z" fill="#556991" stroke="#556991"/><path d="M719,1328L730,1456L885,1368Z" fill="#4a6592" stroke="#4a6592"/><path d="M719,1328L885,1368L831,1222Z" fill="#48669c" stroke="#48669c"/><path d="M831,1222L885,1368L969,1215Z" fill="#4269a1" stroke="#4269a1"/><path d="M969,1215L885,1368L1116,1306Z" fill="#39629f" stroke="#39629f"/><path d="M1116,1306L885,1368L1116,1372Z" fill="#355d9a" stroke="#355d9a"/><path d="M1116,1306L1116,1372L1322,1217Z" fill="#2c59a0" stroke="#2c59a0"/><path d="M1322,1217L1116,1372L1373,1257Z" fill="#2857a1" stroke="#2857a1"/><path d="M1373,1257L1116,1372L1319,1482Z" fill="#275397" stroke="#275397"/><path d="M1373,1257L1319,1482L1403,1411Z" fill="#224e95" stroke="#224e95"/><path d="M1373,1257L1403,1411L1629,1264Z" fill="#1e499d" stroke="#1e499d"/><path d="M1629,1264L1403,1411L1554,1474Z" fill="#1e4493" stroke="#1e4493"/><path d="M1629,1264L1554,1474L1718,1311Z" fill="#1f3d93" stroke="#1f3d93"/><path d="M1718,1311L1554,1474L1750,1417Z" fill="#1e3a8c" stroke="#1e3a8c"/><path d="M1718,1311L1750,1417L1833,1370Z" fill="#1f348c" stroke="#1f348c"/><path d="M1718,1311L1833,1370L1834,1292Z" fill="#203290" stroke="#203290"/><path d="M1834,1292L1833,1370L2006,1231Z" fill="#1f2e8f" stroke="#1f2e8f"/><path d="M2006,1231L1833,1370L2061,1406Z" fill="#1c2687" stroke="#1c2687"/><path d="M2006,1231L2061,1406L2229,1299Z" fill="#191d83" stroke="#191d83"/><path d="M2229,1299L2061,1406L2118,1450Z" fill="#171a79" stroke="#171a79"/><path d="M2229,1299L2118,1450L2273,1479Z" fill="#141573" stroke="#141573"/><path d="M2229,1299L2273,1479L2465,1409Z" fill="#110d6f" stroke="#110d6f"/><path d="M2229,1299L2465,1409L2297,1227Z" fill="#120d78" stroke="#120d78"/><path d="M2297,1227L2465,1409L2498,1247Z" fill="#100a75" stroke="#100a75"/><path d="M2498,1247L2465,1409L2621,1307Z" fill="#10006d" stroke="#10006d"/><path d="M2621,1307L2465,1409L2659,1379Z" fill="#0f0066" stroke="#0f0066"/><path d="M2621,1307L2659,1379L2732,1260Z" fill="#100067" stroke="#100067"/><path d="M2732,1260L2659,1379L2752,1409Z" fill="#0f0061" stroke="#0f0061"/><path d="M-59,1434L1319,1482L730,1456Z" fill="#546989" stroke="#546989"/><path d="M-59,1434L730,1456L99,1421Z" fill="#7a788c" stroke="#7a788c"/><path d="M99,1421L730,1456L419,1383Z" fill="#6d738b" stroke="#6d738b"/><path d="M99,1421L419,1383L245,1366Z" fill="#7b7891" stroke="#7b7891"/><path d="M419,1383L730,1456L546,1383Z" fill="#5e6d8e" stroke="#5e6d8e"/><path d="M730,1456L1319,1482L926,1445Z" fill="#375f8c" stroke="#375f8c"/><path d="M730,1456L926,1445L885,1368Z" fill="#44638f" stroke="#44638f"/><path d="M885,1368L926,1445L1116,1372Z" fill="#3a5f94" stroke="#3a5f94"/><path d="M926,1445L1319,1482L1116,1372Z" fill="#2e5a91" stroke="#2e5a91"/><path d="M1319,1482L2273,1479L1554,1474Z" fill="#1d3781" stroke="#1d3781"/><path d="M1319,1482L1554,1474L1403,1411Z" fill="#1e4b8c" stroke="#1e4b8c"/><path d="M1554,1474L2273,1479L2118,1450Z" fill="#1a2578" stroke="#1a2578"/><path d="M1554,1474L2118,1450L1750,1417Z" fill="#1f3182" stroke="#1f3182"/><path d="M1750,1417L2118,1450L2061,1406Z" fill="#1b257c" stroke="#1b257c"/><path d="M1750,1417L2061,1406L1833,1370Z" fill="#1e2c84" stroke="#1e2c84"/><path d="M2273,1479L2752,1409L2465,1409Z" fill="#0e0262" stroke="#0e0262"/><path d="M2465,1409L2752,1409L2659,1379Z" fill="#0e0060" stroke="#0e0060"/></g></svg>